<?xml version="1.0" standalone="no"?>
<!DOCTYPE svg PUBLIC "-//W3C//DTD SVG 20010904//EN"
 "http://www.w3.org/TR/2001/REC-SVG-20010904/DTD/svg10.dtd">
<svg version="1.0" xmlns="http://www.w3.org/2000/svg"
 width="260.000000pt" height="260.000000pt" viewBox="0 0 260.000000 260.000000"
 preserveAspectRatio="xMidYMid meet">
<metadata>
Created by potrace 1.11, written by Peter Selinger 2001-2013
</metadata>
<g transform="translate(0.000000,260.000000) scale(0.100000,-0.100000)"
fill="#000000" stroke="none">
<path d="M300 2242 c0 -12 960 -1912 961 -1901 0 8 2 23 4 34 3 11 7 38 10 60
3 22 7 49 9 60 4 24 14 91 21 143 3 21 8 49 10 62 3 14 8 45 10 70 3 25 8 52
10 60 2 8 6 34 9 58 11 78 16 118 20 138 2 12 7 44 11 72 l6 52 -206 -1 c-114
0 -208 1 -210 3 -2 2 7 23 19 48 12 25 54 117 95 205 40 88 77 164 81 169 5 5
-66 158 -157 341 l-166 331 -269 0 c-147 -1 -268 -2 -268 -4z"/>
<path d="M1474 2228 c-4 -12 -29 -70 -56 -128 -59 -124 -88 -186 -158 -340
-77 -169 -114 -250 -219 -474 -28 -60 -49 -111 -47 -114 3 -2 96 -4 206 -4
l201 1 -6 -47 c-6 -47 -11 -84 -20 -132 -2 -14 -7 -45 -10 -70 -3 -25 -15 -97
-25 -160 -10 -63 -22 -135 -25 -160 -3 -25 -10 -70 -15 -100 -5 -30 -12 -75
-15 -100 -4 -24 -9 -49 -12 -55 -4 -7 -2 -7 5 0 11 10 46 90 203 460 50 116
99 230 111 255 11 25 45 104 75 175 30 72 63 149 74 172 10 24 19 45 19 48 0
3 -96 5 -213 5 l-214 0 28 135 c15 75 30 150 33 168 3 18 16 84 30 147 13 63
27 131 30 151 3 20 8 42 10 50 3 8 8 32 11 53 3 21 8 50 11 62 8 30 -2 31 -12
2z"/>
<path d="M1761 2235 c-4 -5 -54 -102 -111 -215 -56 -113 -141 -279 -187 -368
-47 -90 -82 -166 -79 -169 3 -3 95 -6 206 -6 110 0 200 -1 200 -2 0 -3 -160
-375 -228 -530 -129 -295 -241 -559 -239 -561 2 -2 34 56 71 129 38 73 90 173
116 222 26 50 82 158 125 240 43 83 101 195 130 250 137 262 178 340 245 470
40 77 94 181 120 230 109 205 160 306 160 315 0 12 -520 8 -529 -5z"/>
</g>
</svg>
